<?xml version="1.0" standalone="no"?>
<!DOCTYPE svg PUBLIC "-//W3C//DTD SVG 20010904//EN"
 "http://www.w3.org/TR/2001/REC-SVG-20010904/DTD/svg10.dtd">
<svg version="1.0" xmlns="http://www.w3.org/2000/svg"
 width="578.000000pt" height="512.000000pt" viewBox="0 0 578.000000 512.000000"
 preserveAspectRatio="xMidYMid meet">

<g transform="translate(0.000000,512.000000) scale(0.100000,-0.100000)"
fill="#000000" stroke="none">
<path d="M3109 4528 c-8 -7 -56 -62 -105 -123 -49 -60 -147 -180 -219 -266
-225 -270 -281 -428 -226 -640 29 -108 50 -146 145 -262 53 -65 178 -159 292
-219 l94 -50 0 99 0 98 -131 131 c-93 93 -130 137 -126 148 13 33 44 13 148
-90 l106 -106 6 139 5 138 -135 137 c-96 96 -134 141 -130 152 13 33 45 13
147 -89 58 -58 108 -105 112 -105 5 0 8 99 8 220 0 174 3 220 13 220 31 0 37
-25 37 -144 l0 -121 114 114 c80 80 119 112 130 108 34 -13 12 -47 -114 -172
l-130 -130 0 -144 0 -145 113 112 c63 62 119 112 124 112 6 0 16 -7 23 -15 11
-13 -8 -36 -124 -150 l-136 -135 0 -191 0 -190 23 7 c85 26 251 138 346 233
187 187 237 437 131 656 -44 92 -96 162 -308 416 -85 101 -168 201 -185 222
-28 33 -34 37 -48 25z"/>
<path d="M1953 3059 c-7 -7 -13 -37 -13 -66 l0 -53 -43 0 c-46 0 -69 -14 -60
-36 3 -9 22 -14 54 -14 l49 0 0 -120 0 -120 -48 0 c-53 0 -63 -5 -55 -26 3 -9
21 -14 54 -14 l49 0 0 -64 c0 -64 0 -64 31 -71 49 -11 189 5 242 27 26 11 61
36 77 55 28 32 30 39 30 118 l0 85 388 0 389 0 11 -104 c15 -138 45 -228 89
-266 97 -86 218 24 210 191 -5 113 -66 177 -197 204 l-55 11 -9 87 c-7 75 -11
87 -27 87 -16 0 -19 -10 -21 -82 -2 -46 -6 -82 -10 -80 -5 1 -179 2 -388 2
l-380 0 0 70 c0 64 -2 72 -32 106 -50 56 -105 77 -223 82 -74 3 -103 0 -112
-9z m245 -211 c19 -19 16 -178 -4 -206 -18 -26 -71 -55 -84 -47 -19 12 -10 45
15 57 24 11 25 15 25 98 0 78 9 110 30 110 3 0 11 -5 18 -12z m1072 -128 c65
-33 84 -63 88 -140 5 -88 -22 -152 -70 -169 -75 -26 -114 52 -134 268 l-6 73
43 -7 c24 -4 60 -15 79 -25z"/>
<path d="M2700 1733 l0 -146 -24 22 c-33 31 -93 43 -156 31 -116 -22 -120 -33
-120 -329 0 -275 4 -291 76 -323 38 -16 60 -19 108 -15 52 5 65 10 88 36 l28
31 0 -35 0 -35 90 0 90 0 0 455 0 455 -90 0 -90 0 0 -147z m-10 -252 c11 -21
14 -300 4 -338 -7 -24 -42 -36 -79 -27 l-25 6 0 189 0 189 45 0 c34 0 47 -5
55 -19z"/>
<path d="M3037 1833 c-4 -3 -7 -199 -7 -435 l0 -428 95 0 95 0 0 180 0 180 90
0 90 0 0 -180 0 -180 95 0 95 0 0 435 0 435 -95 0 -95 0 0 -185 0 -185 -90 0
-90 0 0 185 0 185 -88 0 c-49 0 -92 -3 -95 -7z"/>
<path d="M3742 1451 c3 -377 4 -390 24 -418 38 -52 64 -58 239 -58 134 0 165
3 192 18 63 34 63 36 63 462 l0 386 -92 -3 -93 -3 -3 -352 c-2 -348 -3 -353
-24 -364 -26 -14 -98 -5 -109 13 -5 7 -9 169 -9 361 l0 347 -95 0 -96 0 3
-389z"/>
<path d="M4420 1405 l0 -436 213 3 c241 3 262 9 297 78 17 33 20 59 20 155 0
121 -14 179 -45 191 -14 6 -14 9 4 28 33 35 41 72 41 189 0 130 -14 169 -70
202 -32 18 -55 20 -247 23 l-213 3 0 -436z m314 295 c25 -9 26 -12 26 -102 0
-51 -4 -100 -9 -107 -6 -10 -33 -16 -75 -19 l-66 -4 0 121 0 121 49 0 c27 0
61 -4 75 -10z m20 -376 c3 -9 6 -58 6 -109 0 -110 -4 -115 -94 -115 l-56 0 0
120 0 120 69 0 c54 0 70 -4 75 -16z"/>
<path d="M719 1641 c-99 -19 -129 -65 -129 -198 0 -151 34 -188 186 -199 49
-4 92 -12 96 -18 11 -16 10 -84 -2 -107 -6 -10 -21 -19 -35 -19 -43 0 -55 10
-55 46 l0 35 -92 -3 -93 -3 3 -50 c8 -126 44 -150 227 -150 113 0 135 3 165
20 57 34 71 73 68 192 -3 97 -4 103 -32 132 -36 38 -80 51 -168 51 -76 0 -88
10 -88 75 0 51 15 75 48 75 36 0 52 -17 52 -52 l0 -28 90 0 90 0 0 53 c0 61
-25 109 -69 131 -35 19 -196 29 -262 17z"/>
<path d="M1305 1641 c-51 -9 -78 -24 -104 -57 -20 -25 -21 -39 -21 -272 0
-229 1 -247 20 -278 32 -51 93 -67 243 -63 100 3 128 8 157 24 46 27 70 76 70
143 l0 52 -89 0 -90 0 -3 -37 -3 -38 -57 -3 c-69 -4 -81 11 -76 91 l3 52 158
3 157 3 0 137 c0 215 -22 241 -212 247 -62 2 -131 1 -153 -4z m183 -203 l3
-68 -71 0 -70 0 0 44 c0 25 4 56 10 71 9 24 13 26 67 23 l58 -3 3 -67z"/>
<path d="M1914 1641 c-53 -9 -89 -33 -109 -72 -14 -25 -16 -68 -13 -274 l3
-244 28 -29 c38 -40 87 -52 208 -52 137 1 176 10 217 54 29 33 32 41 32 101
l0 65 -89 0 -90 0 -3 -37 -3 -38 -60 0 -60 0 -3 73 -3 72 156 0 155 0 0 149
c0 164 -6 183 -72 217 -34 18 -226 28 -294 15z m184 -203 l3 -68 -66 0 -65 0
0 63 c0 35 3 67 7 71 4 4 32 6 63 4 l55 -3 3 -67z"/>
</g>
</svg>
